P1
# CREATOR: GIMP PNM Filter Version 1.1
16 16
1111111111111111100000000000000110000000000000011000000000000001100000
0000000001100000000000000110000000000000011000000000000001100000000000
0001100000000000000110000000000000011000000000000001100000000000000110
0000000000000110000000000000011111111111111111